<svg preserveAspectRatio="none" overflow="visible" style="display: block;" width="100.37" height="38.63" viewBox="0 0 100.37 38.63" fill="none" xmlns="http://www.w3.org/2000/svg">
<g id="Logo - Stacked">
<path fill-rule="evenodd" clip-rule="evenodd" d="M7.83 18C2.82 18 0 14.43 0 9.07C0 3.71 3.01 0 7.97 0C13.19 0 15.8 3.87 15.8 8.93C15.8 14.54 12.51 18.01 7.82 18.01L7.83 18ZM7.87 3.37C5.7 3.37 4.23 5.29 4.23 8.98C4.23 12.92 5.58 14.64 7.95 14.64C10.14 14.64 11.57 12.87 11.57 9C11.57 5.13 10.25 3.36 7.88 3.36L7.87 3.37Z" fill="#2659D9"/>
<path d="M26.43 17.68C25.91 17.68 25.71 17.41 25.71 16.93V10.3C25.71 9.24999 25.44 8.54999 24.29 8.54999C23.47 8.54999 22.44 8.91999 21.75 9.51999V16.95C21.75 17.42 21.55 17.67 21.05 17.67H18.7C18.28 17.67 18 17.45 18 17V6.25999C18 5.78999 18.17 5.53999 18.72 5.53999H20.77C21.14 5.53999 21.42 5.63999 21.47 6.05999L21.52 6.57999C22.67 5.67999 24.04 5.17999 25.51 5.17999C28.25 5.17999 29.45 6.89999 29.45 9.61999V16.93C29.45 17.43 29.28 17.68 28.73 17.68H26.43Z" fill="#2659D9"/>
<path fill-rule="evenodd" clip-rule="evenodd" d="M35.63 12.6H42.61V12.59C43.24 12.59 43.51 12.47 43.51 11.87V11.55C43.51 9.8 43.27 8.08 42.02 6.76C41.09 5.76 39.75 5.16 38.15 5.16C34.31 5.16 31.69 7.57 31.69 11.57C31.69 15.57 34.21 18.01 38.18 18.01C39.62 18.01 41.37 17.76 42.69 17.16L42.7023 17.1541C42.9472 17.0366 43.16 16.9346 43.16 16.61C43.16 16.3503 42.9777 15.7063 42.8344 15.2002C42.7736 14.9853 42.7198 14.7952 42.69 14.67C42.64 14.47 42.52 14.32 42.29 14.32C42.19 14.32 42.09 14.34 41.99 14.39C40.99 14.79 39.95 15.04 38.85 15.04C37.32 15.04 35.93 14.17 35.63 12.6ZM35.68 10.23C35.85 9.06 36.67 8.06 37.92 8.06C39.22 8.06 39.84 9.16 39.84 10.23H35.68Z" fill="#2659D9"/>
<path d="M64.23 17.68H61.74C61.09 17.68 60.94 17.36 60.92 16.66L60.65 8.11001H60.6L56.83 17.14C56.63 17.64 56.31 17.69 55.98 17.69H55.06C54.58 17.69 54.31 17.61 54.06 17.12L49.75 8.12001H49.7L49.55 16.92C49.55 17.62 49.23 17.69 48.7 17.69H46.66C46.09 17.69 45.81 17.49 45.81 16.97V16.9L46.48 1.19001C46.51 0.590015 46.78 0.390015 47.26 0.390015H49.06C49.63 0.390015 49.86 0.590015 50.08 1.07001L55.59 12.34H55.64L60.63 1.07001C60.83 0.640015 61.1 0.390015 61.65 0.390015H63.4C63.9 0.390015 64.07 0.570015 64.1 1.02001L64.92 16.93V17.01C64.92 17.48 64.7 17.71 64.25 17.71L64.23 17.68Z" fill="#2659D9"/>
<path fill-rule="evenodd" clip-rule="evenodd" d="M78 17.68H79.32L79.31 17.67C79.66 17.67 79.91 17.47 79.91 17.1V15.65C79.91 15.28 79.74 15.15 79.39 15.15H79.19C78.92 15.15 78.82 14.98 78.82 14.73V6.12999C78.82 5.72999 78.57 5.52999 78.22 5.52999H75.98C75.66 5.52999 75.43 5.75999 75.41 6.02999L75.34 6.57999C74.82 5.82999 73.7 5.17999 72.3 5.17999C69.55 5.17999 66.81 7.42999 66.81 11.84C66.81 15.16 68.48 18 72.07 18C73.29 18 74.89 17.3 75.56 16.53H75.61C75.93 17.25 76.53 17.68 78 17.68ZM73.06 8.27999C73.81 8.27999 74.63 8.72999 75.08 9.12999V13.94C74.77 14.31 73.88 14.99 72.98 14.99C71.09 14.99 70.69 13.15 70.69 11.6C70.69 9.27999 71.84 8.27999 73.06 8.27999Z" fill="#2659D9"/>
<path d="M85.1 17.68H82.86C82.34 17.68 82.09 17.51 82.09 16.96V6.18999C82.09 5.68999 82.41 5.53999 82.86 5.53999H85.1C85.57 5.53999 85.82 5.65999 85.82 6.18999V16.96C85.82 17.46 85.59 17.68 85.1 17.68Z" fill="#2659D9"/>
<path d="M83.93 4.08999C82.98 4.08999 81.91 3.41999 81.91 2.21999C81.91 1.01999 82.91 0.299988 83.93 0.299988C84.95 0.299988 85.92 0.999988 85.92 2.18999C85.92 3.37999 84.87 4.08999 83.93 4.08999Z" fill="#2659D9"/>
<path d="M97.35 17.68H99.65C100.2 17.68 100.37 17.43 100.37 16.93V9.61999C100.37 6.89999 99.17 5.17999 96.43 5.17999C94.96 5.17999 93.59 5.67999 92.44 6.57999L92.39 6.05999C92.34 5.63999 92.06 5.53999 91.69 5.53999H89.64C89.09 5.53999 88.92 5.78999 88.92 6.25999V17C88.92 17.45 89.19 17.67 89.62 17.67H91.96C92.46 17.67 92.66 17.42 92.66 16.95V9.51999C93.36 8.91999 94.39 8.54999 95.21 8.54999C96.36 8.54999 96.63 9.24999 96.63 10.3V16.93C96.63 17.41 96.83 17.68 97.35 17.68Z" fill="#2659D9"/>
<path d="M15.44 23.94C15.42 24.26 15.21 24.31 14.82 24.31H8.79999V29.32H14.18C14.5 29.32 14.64 29.46 14.64 29.73V30.55C14.64 30.87 14.53 30.96 14.21 30.96H8.79999V37.92C8.79999 38.31 8.68999 38.4 8.34999 38.4H7.15999C6.78999 38.4 6.67999 38.33 6.67999 37.9V23.09C6.67999 22.77 6.78999 22.63 7.10999 22.63H15.17C15.42 22.63 15.54 22.74 15.54 22.98V23.05L15.45 23.94H15.44Z" fill="#2659D9"/>
<path d="M17.62 38.4H18.67C18.97 38.4 19.11 38.24 19.11 37.92V27.8C19.11 27.48 18.97 27.34 18.67 27.34H17.62C17.32 27.34 17.16 27.48 17.16 27.8V37.92C17.16 38.24 17.32 38.4 17.62 38.4Z" fill="#2659D9"/>
<path d="M16.95 24.64C16.95 25.31 17.5 25.74 18.12 25.74C18.71 25.74 19.31 25.3 19.31 24.64C19.31 23.98 18.74 23.54 18.12 23.54C17.5 23.54 16.95 23.97 16.95 24.64Z" fill="#2659D9"/>
<path d="M31.24 38.4H30.16C29.86 38.4 29.73 38.24 29.73 37.92V31.51C29.73 29.89 29.32 28.72 27.48 28.72C26.43 28.72 25.12 29.32 24.32 30.05V37.93C24.32 38.25 24.18 38.41 23.88 38.41H22.8C22.52 38.41 22.37 38.25 22.37 37.95V27.81C22.37 27.49 22.49 27.35 22.8 27.35H23.81C24.08 27.35 24.24 27.46 24.24 27.76L24.26 28.47C25.31 27.58 26.68 27.1 28.01 27.1C30.64 27.1 31.65 28.7 31.65 31.2V37.93C31.65 38.25 31.54 38.41 31.22 38.41L31.24 38.4Z" fill="#2659D9"/>
<path fill-rule="evenodd" clip-rule="evenodd" d="M43.53 38.4H44.49L44.48 38.41C44.71 38.41 44.82 38.34 44.82 38.11V37.33C44.82 37.08 44.71 37.03 44.5 37.03H44.34C44.16 37.03 44.04 36.98 43.95 36.82C43.86 36.68 43.84 36.32 43.84 35.79V27.78C43.84 27.48 43.71 27.34 43.43 27.34H42.4C42.15 27.34 41.97 27.46 41.97 27.73L41.95 28.49C41.26 27.57 40.02 27.09 38.88 27.09C36.27 27.09 34 29.25 34 33.07C34 35.95 35.4 38.63 38.56 38.63C39.95 38.63 41.46 37.72 41.99 36.71H42.04C42.04 37.62 42.52 38.4 43.53 38.4ZM39.14 28.65C40.24 28.65 41.36 29.27 41.91 30.3V34.7C41.49 35.84 40.32 37.01 38.86 37.01C37.22 37.01 36.05 35.45 36.05 32.93C36.05 30.2 37.38 28.65 39.14 28.65Z" fill="#2659D9"/>
<path d="M55.9 38.4H54.83C54.53 38.4 54.39 38.24 54.39 37.92V31.51C54.39 29.89 53.98 28.72 52.15 28.72C51.1 28.72 49.79 29.32 48.99 30.05V37.93C48.99 38.25 48.85 38.41 48.56 38.41H47.48C47.2 38.41 47.05 38.25 47.05 37.95V27.81C47.05 27.49 47.16 27.35 47.48 27.35H48.49C48.76 27.35 48.92 27.46 48.92 27.76L48.94 28.47C49.99 27.58 51.37 27.1 52.69 27.1C55.32 27.1 56.33 28.7 56.33 31.2V37.93C56.33 38.25 56.21 38.41 55.9 38.41V38.4Z" fill="#2659D9"/>
<path d="M64.05 38.63C65.1 38.63 66.16 38.43 67.14 37.97H67.15C67.36 37.87 67.43 37.81 67.43 37.67C67.43 37.6201 67.4147 37.5599 67.3987 37.4969C67.3923 37.4716 67.3857 37.4457 67.38 37.42L67.17 36.78C67.12 36.62 67.05 36.55 66.94 36.55C66.89 36.55 66.8201 36.57 66.7501 36.59C66.0201 36.91 65.17 37.14 64.19 37.14C61.74 37.14 60.73 35.12 60.73 32.79C60.73 30.23 62.1 28.6 64.28 28.6C65.17 28.6 65.95 28.85 66.66 29.17C66.73 29.22 66.83 29.24 66.87 29.24C67.01 29.24 67.08 29.13 67.12 28.97L67.3 28.24C67.33 28.18 67.35 28.13 67.35 28.06C67.35 27.92 67.28 27.83 67.12 27.76C66.32 27.34 65.17 27.09 64.19 27.09C60.76 27.09 58.72 29.47 58.72 32.88C58.72 36.29 60.46 38.63 64.05 38.63Z" fill="#2659D9"/>
<path d="M71.01 38.4H69.96C69.66 38.4 69.5 38.24 69.5 37.92V27.8C69.5 27.48 69.66 27.34 69.96 27.34H71.01C71.31 27.34 71.45 27.48 71.45 27.8V37.92C71.45 38.24 71.31 38.4 71.01 38.4Z" fill="#2659D9"/>
<path d="M70.46 25.74C69.84 25.74 69.3 25.31 69.3 24.64C69.3 23.97 69.85 23.54 70.46 23.54C71.07 23.54 71.65 23.98 71.65 24.64C71.65 25.3 71.05 25.74 70.46 25.74Z" fill="#2659D9"/>
<path fill-rule="evenodd" clip-rule="evenodd" d="M83.53 38.4H84.49L84.51 38.41C84.74 38.41 84.85 38.34 84.85 38.11V37.33C84.85 37.08 84.74 37.03 84.53 37.03H84.37C84.19 37.03 84.07 36.98 83.98 36.82C83.88 36.68 83.86 36.32 83.86 35.79V27.78C83.86 27.48 83.72 27.34 83.45 27.34H82.42C82.16 27.34 81.98 27.46 81.98 27.73L81.96 28.49C81.27 27.57 80.03 27.09 78.89 27.09C76.28 27.09 74.01 29.25 74.01 33.07C74.01 35.95 75.4 38.63 78.56 38.63C79.95 38.63 81.46 37.72 81.99 36.71H82.04C82.04 37.62 82.52 38.4 83.53 38.4ZM79.14 28.65C80.24 28.65 81.36 29.27 81.91 30.3H81.92V34.7C81.5 35.84 80.33 37.01 78.87 37.01C77.22 37.01 76.05 35.45 76.05 32.93C76.05 30.2 77.37 28.65 79.14 28.65Z" fill="#2659D9"/>
<path d="M88.57 38.4H87.46C87.19 38.4 87.05 38.26 87.05 37.94V22.74C87.05 22.42 87.12 22.33 87.39 22.28L88.53 22.12H88.64C88.85 22.12 88.98 22.21 88.98 22.51V37.92C88.98 38.24 88.84 38.4 88.57 38.4Z" fill="#2659D9"/>
<path fill-rule="evenodd" clip-rule="evenodd" d="M92.6 37.63H92.77V37.64C92.81 37.64 92.81 37.62 92.81 37.61C92.81 37.59 92.79 37.56 92.79 37.56L92.42 36.95C92.6 36.88 92.74 36.72 92.74 36.5C92.74 36.13 92.48 36.01 92.14 36.01H91.8C91.74 36.01 91.74 36.07 91.74 36.07V37.57C91.74 37.61 91.79 37.63 91.79 37.63H91.95C92 37.63 92 37.57 92 37.57V36.99H92.19L92.53 37.58C92.55 37.61 92.6 37.63 92.6 37.63ZM91.99 36.21H92.12C92.35 36.21 92.48 36.28 92.48 36.49C92.48 36.69 92.34 36.79 92.15 36.79H91.99V36.21Z" fill="#2659D9"/>
<path fill-rule="evenodd" clip-rule="evenodd" d="M90.55 36.82C90.55 37.73 91.28 38.47 92.21 38.47C93.13 38.47 93.87 37.74 93.87 36.82C93.87 35.9 93.14 35.17 92.21 35.17C91.28 35.17 90.55 35.91 90.55 36.82ZM90.85 36.82C90.85 36.07 91.45 35.46 92.21 35.46C92.98 35.46 93.57 36.07 93.57 36.82C93.57 37.57 92.98 38.18 92.21 38.18C91.44 38.18 90.85 37.57 90.85 36.82Z" fill="#2659D9"/>
</g>
</svg>
